<svg xmlns="http://www.w3.org/2000/svg" version="1.1" xmlns:xlink="http://www.w3.org/1999/xlink"
    xmlns:svgjs="http://svgjs.dev/svgjs" width="1440" height="560" preserveAspectRatio="none"
    viewBox="0 0 1440 560">
    <g mask="url(&quot;#SvgjsMask1024&quot;)" fill="none">
        <path d="M1024.77 554.57 a27.63 27.63 0 1 0 55.26 0 a27.63 27.63 0 1 0 -55.26 0z"
            stroke="#037b0b"></path>
        <path d="M1084.27 421.73a12.87 12.87 0 1 0 3.69-25.47z" stroke="#e73635"></path>
        <path d="M1052.93 380.54L1088.86 380.54L1088.86 392.25L1052.93 392.25z" stroke="#e73635"></path>
        <path d="M116.51 52.17L135.55 52.17L135.55 103.12L116.51 103.12z" stroke="#d3b714"></path>
        <path d="M1187.76 395.68L1240.7 395.68L1240.7 445.16L1187.76 445.16z" stroke="#d3b714"></path>
        <path d="M337.15 595.22a51.79 51.79 0 1 0 59.38-84.87z" stroke="#d3b714"></path>
        <path d="M158.52 329.27L206.1 329.27L206.1 376.85L158.52 376.85z" stroke="#e73635"></path>
        <path d="M981.48 497.66L990.64 497.66L990.64 506.82L981.48 506.82z" stroke="#d3b714"></path>
        <path d="M636.43 22.52a9.67 9.67 0 1 0 16.82-9.54z" stroke="#e73635"></path>
        <path d="M534.32 443.48L562.26 443.48L562.26 471.42L534.32 471.42z" fill="#037b0b"></path>
        <path d="M610.28 467.21a21.94 21.94 0 1 0 12.28-42.13z" fill="#e73635"></path>
        <path d="M884.83 528.68L891.89 528.68L891.89 554.49L884.83 554.49z" stroke="#e73635"></path>
        <path d="M451.17 545.26L493.48 545.26L493.48 569.91L451.17 569.91z" fill="#d3b714"></path>
        <path d="M148.58 555.22L149.67 555.22L149.67 556.31L148.58 556.31z" fill="#d3b714"></path>
        <path d="M489.46 99.94L504.51 99.94L504.51 114.99L489.46 114.99z" stroke="#037b0b"></path>
        <path d="M473.84 543.87L526.74 543.87L526.74 596.77L473.84 596.77z" fill="#e73635"></path>
        <path d="M1319.18 463.33a17.14 17.14 0 1 0-34.18 2.57z" fill="#037b0b"></path>
        <path d="M1072.57 470.28 a9.78 9.78 0 1 0 19.56 0 a9.78 9.78 0 1 0 -19.56 0z" fill="#e73635"></path>
        <path d="M59.67 258.19L96.59 258.19L96.59 295.11L59.67 295.11z" fill="#e73635"></path>
        <path d="M81.51 536.89L107.97 536.89L107.97 563.35L81.51 563.35z" fill="#d3b714"></path>
        <path d="M0.78 109 a24.15 24.15 0 1 0 48.3 0 a24.15 24.15 0 1 0 -48.3 0z" fill="#d3b714"></path>
        <path d="M260.24 275.01L282.02 275.01L282.02 296.79L260.24 296.79z" stroke="#d3b714"></path>
        <path d="M1073.37 153.33 a11.29 11.29 0 1 0 22.58 0 a11.29 11.29 0 1 0 -22.58 0z"
            fill="#e73635"></path>
        <path d="M126.43 75.12L131.95 75.12L131.95 104.27L126.43 104.27z" stroke="#e73635"></path>
        <path d="M518.11 303.38L529.59 303.38L529.59 344.28L518.11 344.28z" stroke="#e73635"></path>
        <path d="M356.64 62.21L363.77 62.21L363.77 63.74L356.64 63.74z" stroke="#e73635"></path>
        <path d="M586.14 371.65a33.79 33.79 0 1 0-51.87-43.32z" stroke="#d3b714"></path>
        <path d="M873.83 69.7a24.32 24.32 0 1 0 44.57-19.48z" fill="#037b0b"></path>
        <path d="M895.83 80.18L917.9 80.18L917.9 115.59L895.83 115.59z" stroke="#e73635"></path>
        <path d="M365.12 103.24a37.61 37.61 0 1 0 68.3 31.51z" stroke="#037b0b"></path>
        <path d="M279.61 200.59a35.73 35.73 0 1 0 19.95-68.61z" stroke="#e73635"></path>
        <path d="M1189.21 299.14L1204.03 299.14L1204.03 313.96L1189.21 313.96z" stroke="#d3b714"></path>
        <path d="M1036.3 555.93a14.99 14.99 0 1 0 19.73-22.57z" stroke="#e73635"></path>
    </g>
    <defs>
        <mask id="SvgjsMask1024">
            <rect width="1440" height="560" fill="#ffffff"></rect>
        </mask>
    </defs>
</svg>